<?xml version="1.0" encoding="utf-8"?>
<!-- Generator: Adobe Illustrator 26.0.1, SVG Export Plug-In . SVG Version: 6.00 Build 0)  -->
<svg version="1.1" id="Layer_1" xmlns="http://www.w3.org/2000/svg" xmlns:xlink="http://www.w3.org/1999/xlink" x="0px" y="0px"
	 viewBox="0 0 1080 1080" style="enable-background:new 0 0 1080 1080;" xml:space="preserve">
<style type="text/css">
	.st0{fill:#FDBE00;}
	.st1{fill:#006C30;}
	.st2{fill:#091441;}
</style>
<g>
	<path class="st0" d="M419.77,483.4c-3.23,1.98-6.66,3.83-9.98,5.61l-1.05,0.56c-3.36,1.81-5.73,3.28-7.88,7.19
		c-0.52,0.94-0.57,2.07-0.13,3.05c0.44,0.98,1.31,1.7,2.36,1.94c2.03,0.47,4.9-0.4,10.52-2.35c1.15-0.4,2.15-0.75,2.75-0.92
		l5.05-1.4c2.86-0.8,5.72-1.59,8.58-2.36v-7.09c-0.55,0.14-1.11,0.29-1.64,0.43c-1.86,0.5-3.72,1.01-5.58,1.53
		c0.19-0.12,0.38-0.23,0.57-0.35l1.3-0.8c1.81-1.11,3.57-2.2,5.34-3.22v-7.8c-3.11,1.59-6.05,3.41-8.94,5.19L419.77,483.4z"/>
	<path class="st0" d="M403.91,532.5c1.61,0.9,3.75,0.88,6.91,0.54l0.28-0.03c3.19-0.33,6.34-0.99,9.28-1.65
		c3.25-0.74,6.47-1.61,9.63-2.48v-13.8c-1.54,0.48-3.08,0.95-4.61,1.37c-3.97,1.09-7.82,2.59-11.55,4.03l-2.97,1.13
		c-5.84,1.98-9.05,3.64-9.33,6.74C401.38,530.03,402.27,531.59,403.91,532.5z"/>
	<path class="st0" d="M430,572.43c-1.56,0.47-3.13,0.94-4.69,1.36c-18.17,4.92-32.89,14.55-45.89,25.25
		c5.91-15.98,5.94-35.54-0.23-58c-11.93-43.44-0.94-59.78,2.72-63.75l0.28-0.32c0.23-0.28,0.49-0.54,0.73-0.81
		c4.05-1.79,8.1-3.68,12.03-5.52c7.35-3.45,14.95-7.01,22.57-9.87c4.58-1.72,8.5-3.03,12.49-3.85v-6.98
		c-0.11,0.02-0.21,0.03-0.32,0.05c-5.09,0.94-10.01,2.65-14.57,4.36c-5.57,2.09-11.05,4.51-16.43,6.98
		c2.94-2.96,5.65-6.18,7.71-9.96c3.96-7.25,5.26-17.87-0.77-25.29c-2-2.46-4.4-3.84-6.94-3.96c-3.47-0.17-6.12,2.03-7.71,3.35
		c-5.59,4.63-12.47,10.37-19.34,16.1c-6.78,5.65-13.54,11.29-19.05,15.86c-3.61,2.99-7.35,6.09-10.41,10.03
		c-2.86,3.69-4.86,7.8-6.51,11.36l-24.1,61.62c-4.47,10.87-15.17,14.31-21.15,15.38l-46.22,7.94c-1.86,0.34-3.1,2.12-2.77,3.98
		c0.34,1.86,2.12,3.1,3.98,2.77l46.22-7.94c7.36-1.32,20.56-5.62,26.3-19.58l24.05-61.48c1.77-3.8,3.45-7.04,5.63-9.85
		c2.6-3.35,6.04-6.2,9.37-8.96c5.51-4.57,12.29-10.22,19.07-15.87c6.87-5.73,13.74-11.46,19.33-16.09c0.77-0.64,2.2-1.82,3.01-1.78
		c0.39,0.02,1.11,0.4,1.95,1.44c4,4.92,2.84,12.61,0.07,17.68c-3.05,5.58-7.96,9.93-13.16,14.52l-1.44,1.28
		c-2.56,2.28-5.06,4.53-7.35,7.01c-0.09,0.09-0.18,0.19-0.26,0.29c-0.41,0.45-0.83,0.9-1.23,1.37c-5.53,6.02-16.87,24.74-4.36,70.29
		c6.83,24.88,11.35,69.41-35.14,88.16l-60.67,36.75c-1.78,0.65-2.69,2.62-2.04,4.4c0.15,0.41,0.38,0.78,0.65,1.09
		c0.91,1.02,2.38,1.44,3.74,0.94l60.77-36.79c11.89-4.79,21.43-11.41,28.54-19.66c1.85-1.63,3.69-3.27,5.51-4.92
		c14.83-13.38,31.54-26.58,53.15-32.43c0.97-0.26,1.93-0.54,2.9-0.82V572.43z"/>
	<path class="st0" d="M410.85,560.02c2.69,3.03,8.19,1.66,16.25-0.78c1.24-0.38,2.27-0.69,2.87-0.82c0.01,0,0.03-0.01,0.04-0.01
		v-11.85c-1.9,0.77-3.89,1.61-6.06,2.55c-1.06,0.46-2.18,0.88-3.31,1.32c-3.19,1.22-6.48,2.49-9.27,4.54
		c-0.77,0.57-1.26,1.42-1.37,2.37c-0.11,0.95,0.18,1.9,0.8,2.62C410.81,559.98,410.83,560,410.85,560.02z"/>
</g>
<polygon class="st1" points="636,604.82 636,733.16 630.1,739.05 449.9,739.05 444,733.16 444,356.26 449.9,350.36 630.1,350.36 
	636,356.26 636,484.59 650,484.59 650,350.46 635.9,336.36 444.1,336.36 430,350.46 430,738.95 444.1,753.05 635.9,753.05 
	650,738.95 650,604.82 "/>
<g>
	<polygon class="st2" points="613.37,598.89 466.63,598.89 466.1,599.07 466.1,707.07 466.63,707.25 478.72,707.25 478.72,694.63 
		478.72,635.55 478.72,611.51 601.28,611.51 601.28,635.55 601.28,694.63 601.28,707.25 613.37,707.25 613.9,707.07 613.9,599.07 	
		"/>
	<polygon class="st2" points="601.28,477.91 544.64,477.91 478.72,477.91 478.72,394.79 544.64,394.79 601.28,394.79 613.9,394.79 
		613.9,382.35 613.37,382.17 466.63,382.17 466.1,382.35 466.1,490.35 466.63,490.53 613.37,490.53 613.9,490.35 613.9,477.91 	"/>
	<rect x="478.72" y="441.6" class="st2" width="135.19" height="12.62"/>
	<rect x="478.72" y="635.2" class="st2" width="135.19" height="12.62"/>
	<polygon class="st2" points="533.16,503.15 466.63,503.15 466.1,503.33 466.1,586.09 466.63,586.27 478.72,586.27 478.72,573.65 
		478.72,539.81 478.72,515.76 521.07,515.76 521.07,539.81 521.07,573.65 521.07,586.27 533.16,586.27 533.69,586.09 533.69,526.92 
		533.69,503.33 	"/>
	<rect x="478.72" y="539.46" class="st2" width="54.98" height="12.62"/>
	<rect x="558.93" y="539.46" class="st2" width="54.98" height="12.62"/>
	<polygon class="st2" points="588.67,544.71 601.28,586.27 613.37,586.27 613.9,586.09 601.28,544.71 	"/>
	<polygon class="st2" points="601.28,539.81 601.28,552.08 613.9,552.08 613.9,526.92 613.9,503.33 613.37,503.15 546.84,503.15 
		546.31,503.33 546.31,586.09 546.84,586.27 558.93,586.27 558.93,573.65 558.93,539.81 558.93,515.76 601.28,515.76 	"/>
	<polygon class="st0" points="589.8,624.13 601.28,586.45 600.75,586.27 588.67,586.27 577.17,624.13 	"/>
</g>
</svg>
